<?xml version="1.0" encoding="utf-8"?>
<!-- Generator: Adobe Illustrator 16.0.0, SVG Export Plug-In . SVG Version: 6.00 Build 0)  -->
<!DOCTYPE svg PUBLIC "-//W3C//DTD SVG 1.1//EN" "http://www.w3.org/Graphics/SVG/1.1/DTD/svg11.dtd">
<svg version="1.1" id="Layer_1" xmlns="http://www.w3.org/2000/svg" xmlns:xlink="http://www.w3.org/1999/xlink" x="0px" y="0px"
	 width="1189.9px" height="1000px" viewBox="0 0 1189.9 1000" enable-background="new 0 0 1189.9 1000" xml:space="preserve">
<g>
	<g>
		<path fill="#2f373f" fill-rule="evenodd" clip-rule="evenodd" d="M1118.6,428.7H244.2L550.8,122c27.9-27.9,27.9-73.2,0-101.1
			C522.9-7,477.7-7,449.8,20.9L21.7,449c-1.8,1.8-3.5,3.7-5.1,5.7c-23.4,28.1-22,69.9,4.4,96.3L449,979.1
			c27.9,27.9,73.2,27.9,101.1,0c27.9-27.9,27.9-73.2,0-101.1L243.5,571.4h875.1c39.4,0,71.4-32,71.4-71.4S1158,428.7,1118.6,428.7z"
			/>
	</g>
</g>
</svg>
